<mxfile host="app.diagrams.net" agent="Mozilla/5.0 (Windows NT 10.0; Win64; x64) AppleWebKit/537.36 (KHTML, like Gecko) Chrome/134.0.0.0 Safari/537.36 Edg/134.0.0.0" version="26.1.0">
  <diagram id="LVMDON9IrTu63IfpqEFc" name="第 1 页">
    <mxGraphModel dx="1529" dy="931" grid="1" gridSize="10" guides="1" tooltips="1" connect="1" arrows="1" fold="1" page="1" pageScale="1" pageWidth="1920" pageHeight="1200" math="0" shadow="0">
      <root>
        <mxCell id="0" />
        <mxCell id="1" parent="0" />
        <mxCell id="woGxTImo8XdjNX983pwg-132" value="" style="edgeStyle=orthogonalEdgeStyle;rounded=0;orthogonalLoop=1;jettySize=auto;html=1;exitX=0;exitY=0.5;exitDx=10;exitDy=0;exitPerimeter=0;" edge="1" parent="1" source="woGxTImo8XdjNX983pwg-3" target="woGxTImo8XdjNX983pwg-131">
          <mxGeometry relative="1" as="geometry" />
        </mxCell>
        <mxCell id="woGxTImo8XdjNX983pwg-3" value="Stream" style="shape=module;align=left;spacingLeft=20;align=center;verticalAlign=top;whiteSpace=wrap;html=1;" vertex="1" parent="1">
          <mxGeometry x="490" y="30" width="160" height="100" as="geometry" />
        </mxCell>
        <mxCell id="woGxTImo8XdjNX983pwg-9" value="DataStreamSource" style="shape=module;align=left;spacingLeft=20;align=center;verticalAlign=top;whiteSpace=wrap;html=1;" vertex="1" parent="1">
          <mxGeometry x="285" y="180" width="100" height="50" as="geometry" />
        </mxCell>
        <mxCell id="woGxTImo8XdjNX983pwg-10" value="FileStreamSource" style="shape=module;align=left;spacingLeft=20;align=center;verticalAlign=top;whiteSpace=wrap;html=1;" vertex="1" parent="1">
          <mxGeometry x="440" y="280" width="100" height="50" as="geometry" />
        </mxCell>
        <mxCell id="woGxTImo8XdjNX983pwg-11" value="Extends" style="endArrow=block;endSize=16;endFill=0;html=1;rounded=0;exitX=0.5;exitY=0;exitDx=0;exitDy=0;entryX=0.5;entryY=1;entryDx=0;entryDy=0;" edge="1" parent="1" source="woGxTImo8XdjNX983pwg-9" target="woGxTImo8XdjNX983pwg-3">
          <mxGeometry width="160" relative="1" as="geometry">
            <mxPoint x="625" y="190" as="sourcePoint" />
            <mxPoint x="785" y="190" as="targetPoint" />
          </mxGeometry>
        </mxCell>
        <mxCell id="woGxTImo8XdjNX983pwg-12" value="Extends" style="endArrow=block;endSize=16;endFill=0;html=1;rounded=0;exitX=0.5;exitY=0;exitDx=0;exitDy=0;entryX=0.5;entryY=1;entryDx=0;entryDy=0;" edge="1" parent="1" source="woGxTImo8XdjNX983pwg-10" target="woGxTImo8XdjNX983pwg-9">
          <mxGeometry width="160" relative="1" as="geometry">
            <mxPoint x="625" y="190" as="sourcePoint" />
            <mxPoint x="785" y="190" as="targetPoint" />
          </mxGeometry>
        </mxCell>
        <mxCell id="woGxTImo8XdjNX983pwg-15" value="" style="ellipse;whiteSpace=wrap;html=1;align=center;aspect=fixed;fillColor=none;strokeColor=none;resizable=0;perimeter=centerPerimeter;rotatable=0;allowArrows=0;points=[];outlineConnect=1;" vertex="1" parent="1">
          <mxGeometry x="700" y="180" width="10" height="10" as="geometry" />
        </mxCell>
        <mxCell id="woGxTImo8XdjNX983pwg-52" value="" style="edgeStyle=orthogonalEdgeStyle;rounded=0;orthogonalLoop=1;jettySize=auto;html=1;" edge="1" parent="1" source="woGxTImo8XdjNX983pwg-16" target="woGxTImo8XdjNX983pwg-51">
          <mxGeometry relative="1" as="geometry" />
        </mxCell>
        <mxCell id="woGxTImo8XdjNX983pwg-16" value="Operator&lt;div&gt;&lt;br&gt;&lt;/div&gt;" style="shape=module;align=left;spacingLeft=20;align=center;verticalAlign=top;whiteSpace=wrap;html=1;" vertex="1" parent="1">
          <mxGeometry x="795" y="70" width="100" height="50" as="geometry" />
        </mxCell>
        <mxCell id="woGxTImo8XdjNX983pwg-17" value="" style="endArrow=block;dashed=1;endFill=0;endSize=12;html=1;rounded=0;exitX=1;exitY=0.5;exitDx=0;exitDy=0;" edge="1" parent="1" source="woGxTImo8XdjNX983pwg-3">
          <mxGeometry width="160" relative="1" as="geometry">
            <mxPoint x="625" y="94.75999999999999" as="sourcePoint" />
            <mxPoint x="785" y="94.75999999999999" as="targetPoint" />
          </mxGeometry>
        </mxCell>
        <mxCell id="woGxTImo8XdjNX983pwg-18" value="&lt;div&gt;plan(planner.h)&lt;/div&gt;" style="text;strokeColor=none;fillColor=none;align=left;verticalAlign=top;spacingLeft=4;spacingRight=4;overflow=hidden;rotatable=0;points=[[0,0.5],[1,0.5]];portConstraint=eastwest;whiteSpace=wrap;html=1;" vertex="1" parent="1">
          <mxGeometry x="655" y="70" width="100" height="26" as="geometry" />
        </mxCell>
        <mxCell id="woGxTImo8XdjNX983pwg-38" value="" style="ellipse;whiteSpace=wrap;html=1;align=center;aspect=fixed;fillColor=none;strokeColor=none;resizable=0;perimeter=centerPerimeter;rotatable=0;allowArrows=0;points=[];outlineConnect=1;" vertex="1" parent="1">
          <mxGeometry x="870" y="310" width="10" height="10" as="geometry" />
        </mxCell>
        <mxCell id="woGxTImo8XdjNX983pwg-51" value="Operator&lt;div&gt;&lt;br&gt;&lt;/div&gt;" style="shape=module;align=left;spacingLeft=20;align=center;verticalAlign=top;whiteSpace=wrap;html=1;" vertex="1" parent="1">
          <mxGeometry x="975" y="70" width="100" height="50" as="geometry" />
        </mxCell>
        <mxCell id="woGxTImo8XdjNX983pwg-54" value="emit()&lt;div&gt;&lt;br&gt;&lt;/div&gt;" style="text;strokeColor=none;fillColor=none;align=left;verticalAlign=top;spacingLeft=4;spacingRight=4;overflow=hidden;rotatable=0;points=[[0,0.5],[1,0.5]];portConstraint=eastwest;whiteSpace=wrap;html=1;" vertex="1" parent="1">
          <mxGeometry x="915" y="60" width="100" height="26" as="geometry" />
        </mxCell>
        <mxCell id="woGxTImo8XdjNX983pwg-65" value="" style="edgeStyle=orthogonalEdgeStyle;rounded=0;orthogonalLoop=1;jettySize=auto;html=1;" edge="1" parent="1" source="woGxTImo8XdjNX983pwg-55" target="woGxTImo8XdjNX983pwg-64">
          <mxGeometry relative="1" as="geometry" />
        </mxCell>
        <mxCell id="woGxTImo8XdjNX983pwg-55" value="StreamEnvironment&lt;div&gt;&lt;br&gt;&lt;/div&gt;" style="shape=module;align=left;spacingLeft=20;align=center;verticalAlign=top;whiteSpace=wrap;html=1;" vertex="1" parent="1">
          <mxGeometry x="650" y="510" width="320" height="200" as="geometry" />
        </mxCell>
        <mxCell id="woGxTImo8XdjNX983pwg-136" value="" style="edgeStyle=orthogonalEdgeStyle;rounded=0;orthogonalLoop=1;jettySize=auto;html=1;" edge="1" parent="1" source="woGxTImo8XdjNX983pwg-56" target="woGxTImo8XdjNX983pwg-57">
          <mxGeometry relative="1" as="geometry" />
        </mxCell>
        <mxCell id="woGxTImo8XdjNX983pwg-137" value="execute()" style="edgeLabel;html=1;align=center;verticalAlign=middle;resizable=0;points=[];" vertex="1" connectable="0" parent="woGxTImo8XdjNX983pwg-136">
          <mxGeometry x="-0.0993" relative="1" as="geometry">
            <mxPoint as="offset" />
          </mxGeometry>
        </mxCell>
        <mxCell id="woGxTImo8XdjNX983pwg-56" value="streams_" style="shape=module;align=left;spacingLeft=20;align=center;verticalAlign=top;whiteSpace=wrap;html=1;" vertex="1" parent="1">
          <mxGeometry x="675" y="600" width="100" height="50" as="geometry" />
        </mxCell>
        <mxCell id="woGxTImo8XdjNX983pwg-78" value="" style="edgeStyle=orthogonalEdgeStyle;rounded=0;orthogonalLoop=1;jettySize=auto;html=1;" edge="1" parent="1" source="woGxTImo8XdjNX983pwg-57" target="woGxTImo8XdjNX983pwg-77">
          <mxGeometry relative="1" as="geometry" />
        </mxCell>
        <mxCell id="woGxTImo8XdjNX983pwg-88" value="execute()" style="edgeLabel;html=1;align=center;verticalAlign=middle;resizable=0;points=[];" vertex="1" connectable="0" parent="woGxTImo8XdjNX983pwg-78">
          <mxGeometry x="0.0025" y="1" relative="1" as="geometry">
            <mxPoint as="offset" />
          </mxGeometry>
        </mxCell>
        <mxCell id="woGxTImo8XdjNX983pwg-57" value="operators_" style="shape=module;align=left;spacingLeft=20;align=center;verticalAlign=top;whiteSpace=wrap;html=1;" vertex="1" parent="1">
          <mxGeometry x="850" y="600" width="100" height="50" as="geometry" />
        </mxCell>
        <mxCell id="woGxTImo8XdjNX983pwg-64" value="addstream" style="ellipse;whiteSpace=wrap;html=1;verticalAlign=top;spacingLeft=20;" vertex="1" parent="1">
          <mxGeometry x="752.5" y="390" width="115" height="25" as="geometry" />
        </mxCell>
        <mxCell id="woGxTImo8XdjNX983pwg-75" value="" style="endArrow=block;dashed=1;endFill=0;endSize=12;html=1;rounded=0;exitX=0;exitY=0.5;exitDx=0;exitDy=0;" edge="1" parent="1" source="woGxTImo8XdjNX983pwg-64" target="woGxTImo8XdjNX983pwg-56">
          <mxGeometry width="160" relative="1" as="geometry">
            <mxPoint x="990" y="440" as="sourcePoint" />
            <mxPoint x="910" y="350" as="targetPoint" />
          </mxGeometry>
        </mxCell>
        <mxCell id="woGxTImo8XdjNX983pwg-135" value="streams.push_back(Stream)" style="edgeLabel;html=1;align=center;verticalAlign=middle;resizable=0;points=[];" vertex="1" connectable="0" parent="woGxTImo8XdjNX983pwg-75">
          <mxGeometry x="-0.3992" y="-1" relative="1" as="geometry">
            <mxPoint as="offset" />
          </mxGeometry>
        </mxCell>
        <mxCell id="woGxTImo8XdjNX983pwg-77" value="operators_graph&lt;div&gt;&lt;br&gt;&lt;/div&gt;" style="shape=module;align=left;spacingLeft=20;align=center;verticalAlign=top;whiteSpace=wrap;html=1;" vertex="1" parent="1">
          <mxGeometry x="835" y="830" width="130" height="75" as="geometry" />
        </mxCell>
        <mxCell id="woGxTImo8XdjNX983pwg-83" value="" style="ellipse;whiteSpace=wrap;html=1;align=center;aspect=fixed;fillColor=none;strokeColor=none;resizable=0;perimeter=centerPerimeter;rotatable=0;allowArrows=0;points=[];outlineConnect=1;" vertex="1" parent="1">
          <mxGeometry x="635" y="575" width="10" height="10" as="geometry" />
        </mxCell>
        <mxCell id="woGxTImo8XdjNX983pwg-92" value="ConfigMap" style="shape=module;align=left;spacingLeft=20;align=center;verticalAlign=top;whiteSpace=wrap;html=1;" vertex="1" parent="1">
          <mxGeometry x="390" y="550" width="100" height="50" as="geometry" />
        </mxCell>
        <mxCell id="woGxTImo8XdjNX983pwg-96" value="" style="rounded=0;orthogonalLoop=1;jettySize=auto;html=1;endArrow=halfCircle;endFill=0;endSize=6;strokeWidth=1;sketch=0;exitX=0;exitY=0.5;exitDx=10;exitDy=0;exitPerimeter=0;" edge="1" target="woGxTImo8XdjNX983pwg-98" parent="1" source="woGxTImo8XdjNX983pwg-55">
          <mxGeometry relative="1" as="geometry">
            <mxPoint x="550" y="575" as="sourcePoint" />
          </mxGeometry>
        </mxCell>
        <mxCell id="woGxTImo8XdjNX983pwg-97" value="" style="rounded=0;orthogonalLoop=1;jettySize=auto;html=1;endArrow=oval;endFill=0;sketch=0;sourcePerimeterSpacing=0;targetPerimeterSpacing=0;endSize=10;exitX=1;exitY=0.5;exitDx=0;exitDy=0;" edge="1" target="woGxTImo8XdjNX983pwg-98" parent="1" source="woGxTImo8XdjNX983pwg-92">
          <mxGeometry relative="1" as="geometry">
            <mxPoint x="510" y="575" as="sourcePoint" />
          </mxGeometry>
        </mxCell>
        <mxCell id="woGxTImo8XdjNX983pwg-98" value="" style="ellipse;whiteSpace=wrap;html=1;align=center;aspect=fixed;fillColor=none;strokeColor=none;resizable=0;perimeter=centerPerimeter;rotatable=0;allowArrows=0;points=[];outlineConnect=1;" vertex="1" parent="1">
          <mxGeometry x="550" y="570" width="10" height="10" as="geometry" />
        </mxCell>
        <mxCell id="woGxTImo8XdjNX983pwg-99" value="some_operators&lt;div&gt;(join, filter...)&lt;/div&gt;" style="shape=module;align=left;spacingLeft=20;align=center;verticalAlign=top;whiteSpace=wrap;html=1;" vertex="1" parent="1">
          <mxGeometry x="1230" y="70" width="140" height="60" as="geometry" />
        </mxCell>
        <mxCell id="woGxTImo8XdjNX983pwg-100" value="output_operator&lt;div&gt;&lt;br&gt;&lt;/div&gt;" style="shape=module;align=left;spacingLeft=20;align=center;verticalAlign=top;whiteSpace=wrap;html=1;" vertex="1" parent="1">
          <mxGeometry x="840" y="260" width="145" height="70" as="geometry" />
        </mxCell>
        <mxCell id="woGxTImo8XdjNX983pwg-107" value="Extends" style="endArrow=block;endSize=16;endFill=0;html=1;rounded=0;entryX=0.5;entryY=1;entryDx=0;entryDy=0;exitX=1;exitY=0.5;exitDx=0;exitDy=0;" edge="1" parent="1" source="woGxTImo8XdjNX983pwg-100" target="woGxTImo8XdjNX983pwg-51">
          <mxGeometry width="160" relative="1" as="geometry">
            <mxPoint x="1010" y="230" as="sourcePoint" />
            <mxPoint x="1170" y="230" as="targetPoint" />
          </mxGeometry>
        </mxCell>
        <mxCell id="woGxTImo8XdjNX983pwg-108" value="Extends" style="endArrow=block;endSize=16;endFill=0;html=1;rounded=0;exitX=0.074;exitY=0.545;exitDx=0;exitDy=0;exitPerimeter=0;entryX=1;entryY=0.5;entryDx=0;entryDy=0;" edge="1" parent="1" source="woGxTImo8XdjNX983pwg-99" target="woGxTImo8XdjNX983pwg-51">
          <mxGeometry x="1" y="-22" width="160" relative="1" as="geometry">
            <mxPoint x="1010" y="230" as="sourcePoint" />
            <mxPoint x="1170" y="230" as="targetPoint" />
            <mxPoint x="20" y="-12" as="offset" />
          </mxGeometry>
        </mxCell>
        <mxCell id="woGxTImo8XdjNX983pwg-109" value="" style="rounded=0;orthogonalLoop=1;jettySize=auto;html=1;endArrow=halfCircle;endFill=0;endSize=6;strokeWidth=1;sketch=0;exitX=0;exitY=0;exitDx=0;exitDy=35;exitPerimeter=0;" edge="1" parent="1" source="woGxTImo8XdjNX983pwg-100">
          <mxGeometry relative="1" as="geometry">
            <mxPoint x="685" y="295" as="sourcePoint" />
            <mxPoint x="760" y="300" as="targetPoint" />
          </mxGeometry>
        </mxCell>
        <mxCell id="woGxTImo8XdjNX983pwg-110" value="" style="rounded=0;orthogonalLoop=1;jettySize=auto;html=1;endArrow=oval;endFill=0;sketch=0;sourcePerimeterSpacing=0;targetPerimeterSpacing=0;endSize=10;exitX=1;exitY=0.5;exitDx=0;exitDy=0;" edge="1" parent="1" source="woGxTImo8XdjNX983pwg-10">
          <mxGeometry relative="1" as="geometry">
            <mxPoint x="645" y="295" as="sourcePoint" />
            <mxPoint x="760" y="300" as="targetPoint" />
          </mxGeometry>
        </mxCell>
        <mxCell id="woGxTImo8XdjNX983pwg-112" value="Next()" style="edgeLabel;html=1;align=center;verticalAlign=middle;resizable=0;points=[];" vertex="1" connectable="0" parent="woGxTImo8XdjNX983pwg-110">
          <mxGeometry x="0.0364" y="1" relative="1" as="geometry">
            <mxPoint as="offset" />
          </mxGeometry>
        </mxCell>
        <mxCell id="woGxTImo8XdjNX983pwg-111" value="" style="ellipse;whiteSpace=wrap;html=1;align=center;aspect=fixed;fillColor=none;strokeColor=none;resizable=0;perimeter=centerPerimeter;rotatable=0;allowArrows=0;points=[];outlineConnect=1;" vertex="1" parent="1">
          <mxGeometry x="660" y="290" width="10" height="10" as="geometry" />
        </mxCell>
        <mxCell id="woGxTImo8XdjNX983pwg-113" value="Operator&lt;div&gt;&lt;br&gt;&lt;/div&gt;" style="shape=module;align=left;spacingLeft=20;align=center;verticalAlign=top;whiteSpace=wrap;html=1;" vertex="1" parent="1">
          <mxGeometry x="1240" y="420" width="230" height="130" as="geometry" />
        </mxCell>
        <mxCell id="woGxTImo8XdjNX983pwg-115" value="Function" style="shape=module;align=left;spacingLeft=20;align=center;verticalAlign=top;whiteSpace=wrap;html=1;" vertex="1" parent="1">
          <mxGeometry x="1260" y="485" width="100" height="50" as="geometry" />
        </mxCell>
        <mxCell id="woGxTImo8XdjNX983pwg-116" value="join_operator&lt;div&gt;&lt;br&gt;&lt;/div&gt;" style="shape=module;align=left;spacingLeft=20;align=center;verticalAlign=top;whiteSpace=wrap;html=1;" vertex="1" parent="1">
          <mxGeometry x="1200" y="930" width="350" height="240" as="geometry" />
        </mxCell>
        <mxCell id="woGxTImo8XdjNX983pwg-117" value="join_function" style="shape=module;align=left;spacingLeft=20;align=center;verticalAlign=top;whiteSpace=wrap;html=1;" vertex="1" parent="1">
          <mxGeometry x="1220" y="990" width="130" height="50" as="geometry" />
        </mxCell>
        <mxCell id="woGxTImo8XdjNX983pwg-118" value="mother" style="shape=module;align=left;spacingLeft=20;align=center;verticalAlign=top;whiteSpace=wrap;html=1;" vertex="1" parent="1">
          <mxGeometry x="1370" y="990" width="120" height="50" as="geometry" />
        </mxCell>
        <mxCell id="woGxTImo8XdjNX983pwg-119" value="left_record&lt;div&gt;&lt;br&gt;&lt;/div&gt;" style="shape=module;align=left;spacingLeft=20;align=center;verticalAlign=top;whiteSpace=wrap;html=1;" vertex="1" parent="1">
          <mxGeometry x="1220" y="1090" width="120" height="60" as="geometry" />
        </mxCell>
        <mxCell id="woGxTImo8XdjNX983pwg-120" value="right_record" style="shape=module;align=left;spacingLeft=20;align=center;verticalAlign=top;whiteSpace=wrap;html=1;" vertex="1" parent="1">
          <mxGeometry x="1370" y="1090" width="100" height="50" as="geometry" />
        </mxCell>
        <mxCell id="woGxTImo8XdjNX983pwg-121" value="PerformanceMonitor" style="shape=module;align=left;spacingLeft=20;align=center;verticalAlign=top;whiteSpace=wrap;html=1;" vertex="1" parent="1">
          <mxGeometry x="380" y="660" width="170" height="60" as="geometry" />
        </mxCell>
        <mxCell id="woGxTImo8XdjNX983pwg-124" value="" style="edgeStyle=orthogonalEdgeStyle;rounded=0;orthogonalLoop=1;jettySize=auto;html=1;" edge="1" parent="1" source="woGxTImo8XdjNX983pwg-122" target="woGxTImo8XdjNX983pwg-123">
          <mxGeometry relative="1" as="geometry" />
        </mxCell>
        <mxCell id="woGxTImo8XdjNX983pwg-122" value="VectorRecord" style="shape=module;align=left;spacingLeft=20;align=center;verticalAlign=top;whiteSpace=wrap;html=1;" vertex="1" parent="1">
          <mxGeometry x="420" y="800" width="100" height="50" as="geometry" />
        </mxCell>
        <mxCell id="woGxTImo8XdjNX983pwg-123" value="VectorRecordHash" style="shape=module;align=left;spacingLeft=20;align=center;verticalAlign=top;whiteSpace=wrap;html=1;" vertex="1" parent="1">
          <mxGeometry x="400" y="930" width="130" height="60" as="geometry" />
        </mxCell>
        <mxCell id="woGxTImo8XdjNX983pwg-131" value="join, filter, map ..." style="ellipse;whiteSpace=wrap;html=1;verticalAlign=top;spacingLeft=20;" vertex="1" parent="1">
          <mxGeometry x="110" y="62.5" width="135" height="35" as="geometry" />
        </mxCell>
        <mxCell id="woGxTImo8XdjNX983pwg-140" value="streams" style="shape=module;align=left;spacingLeft=20;align=center;verticalAlign=top;whiteSpace=wrap;html=1;" vertex="1" parent="1">
          <mxGeometry x="520" y="66" width="100" height="50" as="geometry" />
        </mxCell>
        <mxCell id="woGxTImo8XdjNX983pwg-144" value="" style="endArrow=block;dashed=1;endFill=0;endSize=12;html=1;rounded=0;exitX=0;exitY=0.5;exitDx=0;exitDy=0;entryX=0.096;entryY=0.6;entryDx=0;entryDy=0;entryPerimeter=0;" edge="1" parent="1" source="woGxTImo8XdjNX983pwg-131" target="woGxTImo8XdjNX983pwg-140">
          <mxGeometry width="160" relative="1" as="geometry">
            <mxPoint x="120" y="130" as="sourcePoint" />
            <mxPoint x="280" y="130" as="targetPoint" />
            <Array as="points">
              <mxPoint x="80" y="130" />
              <mxPoint x="90" y="180" />
              <mxPoint x="260" y="170" />
            </Array>
          </mxGeometry>
        </mxCell>
        <mxCell id="woGxTImo8XdjNX983pwg-145" value="streams.push_back(stream)" style="edgeLabel;html=1;align=center;verticalAlign=middle;resizable=0;points=[];" vertex="1" connectable="0" parent="woGxTImo8XdjNX983pwg-144">
          <mxGeometry x="-0.3426" y="-1" relative="1" as="geometry">
            <mxPoint x="1" as="offset" />
          </mxGeometry>
        </mxCell>
      </root>
    </mxGraphModel>
  </diagram>
</mxfile>
